<svg height="458pt" viewBox="0 -14 458.516 458" width="458pt" xmlns="http://www.w3.org/2000/svg"><g fill="#122436"><path d="m357.34375 84.257812c-2.589844-2.21875-5.242188-4.367187-7.949219-6.453124l-6.097656 7.925781c2.570313 1.976562 5.085937 4.019531 7.546875 6.125zm0 0"/><path d="m315.460938 67.972656 4.613281-8.871094c-3.027344-1.574218-6.097657-3.070312-9.214844-4.488281l-4.144531 9.097657c2.960937 1.347656 5.875 2.769531 8.746094 4.261718zm0 0"/><path d="m170.207031 56.488281-3.15625-9.492187c-3.246093 1.078125-6.453125 2.242187-9.625 3.480468l3.644531 9.3125c3.007813-1.175781 6.054688-2.277343 9.136719-3.300781zm0 0"/><path d="m299.515625 49.871094c-3.1875-1.21875-6.414063-2.351563-9.675781-3.40625l-3.070313 9.515625c3.09375 1 6.15625 2.078125 9.179688 3.230469zm0 0"/><path d="m401.148438 160.011719 9.179687-3.964844c-1.351563-3.132813-2.785156-6.222656-4.292969-9.269531l-8.960937 4.4375c1.433593 2.890625 2.789062 5.824218 4.074219 8.796875zm0 0"/><path d="m150.375 64.367188-4.222656-9.066407c-3.09375 1.441407-6.140625 2.960938-9.144532 4.554688l4.683594 8.832031c2.851563-1.511719 5.746094-2.953125 8.683594-4.320312zm0 0"/><path d="m386.53125 132.660156c1.753906 2.714844 3.441406 5.476563 5.054688 8.285156l8.667968-4.988281c-1.703125-2.957031-3.476562-5.867187-5.324218-8.726562zm0 0"/><path d="m366.265625 106.644531 7.320313-6.8125c-2.324219-2.496093-4.710938-4.933593-7.160157-7.304687l-6.960937 7.179687c2.324218 2.253907 4.59375 4.566407 6.800781 6.9375zm0 0"/><path d="m379.90625 123.078125 8.042969-5.9375c-2.023438-2.746094-4.121094-5.433594-6.285157-8.070313l-7.726562 6.351563c2.054688 2.5 4.042969 5.050781 5.96875 7.65625zm0 0"/><path d="m339.433594 70.617188c-2.828125-1.90625-5.707032-3.746094-8.636719-5.507813l-5.15625 8.566406c2.78125 1.675781 5.511719 3.417969 8.199219 5.230469zm0 0"/><path d="m60.757812 152.605469-8.996093-4.363281c-1.488281 3.070312-2.898438 6.183593-4.230469 9.339843l9.214844 3.882813c1.261718-2.992188 2.601562-5.945313 4.011718-8.859375zm0 0"/><path d="m71.171875 133.929688-8.441406-5.363282c-1.828125 2.882813-3.585938 5.808594-5.265625 8.789063l8.707031 4.914062c1.597656-2.824219 3.265625-5.609375 5-8.339843zm0 0"/><path d="m114.046875 86.640625-6.164063-7.875c-2.6875 2.101563-5.316406 4.273437-7.890624 6.507813l6.5625 7.546874c2.441406-2.121093 4.9375-4.183593 7.492187-6.179687zm0 0"/><path d="m83.640625 116.566406-7.777344-6.285156c-2.144531 2.652344-4.222656 5.363281-6.226562 8.125l8.089843 5.878906c1.90625-2.628906 3.878907-5.199218 5.914063-7.71875zm0 0"/><path d="m131.578125 74.464844-5.226563-8.523438c-2.90625 1.78125-5.765624 3.636719-8.574218 5.566406l5.664062 8.242188c2.664063-1.828125 5.378906-3.59375 8.136719-5.285156zm0 0"/><path d="m91.25 107.730469c2.1875-2.386719 4.4375-4.71875 6.746094-6.992188l-7.011719-7.128906c-2.429687 2.394531-4.800781 4.847656-7.105469 7.363281zm0 0"/><path d="m425.210938 255.816406c.019531-.191406.042968-.378906.0625-.570312.019531-.199219.039062-.394532.0625-.597656.015624-.167969.035156-.335938.050781-.503907.035156-.355469.070312-.710937.101562-1.066406.011719-.109375.023438-.222656.035157-.332031.023437-.265625.046874-.53125.070312-.792969.015625-.152344.027344-.304687.039062-.460937.019532-.230469.042969-.464844.0625-.699219.011719-.152344.023438-.300781.035157-.449219.023437-.265625.042969-.53125.066406-.796875.007813-.109375.015625-.222656.023437-.332031.03125-.378906.058594-.761719.085938-1.144532.003906-.0625.007812-.128906.015625-.195312.019531-.320312.042969-.636719.0625-.953125.007813-.117187.011719-.230469.023437-.34375.015626-.289063.035157-.578125.050782-.867187.003906-.101563.011718-.203126.015625-.304688.023437-.355469.042969-.707031.058593-1.0625 0-.019531.003907-.035156.003907-.050781.019531-.402344.039062-.800781.058593-1.199219 0-.023438 0-.042969 0-.0625.003907-.050781.003907-.101562.007813-.15625.011719-.304688.023437-.609375.035156-.917969.007813-.132812.011719-.261719.015625-.394531.011719-.269531.019532-.535156.027344-.804688.003906-.125.007812-.253906.011719-.378906.011719-.3125.019531-.625.027343-.941406.003907-.074219.003907-.152344.007813-.230469.011719-.378906.019531-.757812.027344-1.140625 0-.121094.003906-.246094.003906-.367187.007813-.273438.011719-.550781.015625-.824219 0-.132812.003906-.265625.003906-.402344.003906-.273437.007813-.546875.007813-.824218.003906-.125.003906-.25.003906-.375 0-.382813.003906-.765626.003906-1.152344v-.457032c-.011719-4.960937-.207031-9.878906-.578125-14.75-.007812-.128906-.019531-.257812-.027344-.386718-.023437-.28125-.046874-.5625-.070312-.839844-.011719-.140625-.023438-.285156-.035156-.421875-.023438-.269531-.046875-.535156-.066406-.800781-.015626-.148438-.027344-.296875-.042969-.445313-.023438-.261719-.046875-.523437-.070313-.78125-.015625-.152343-.03125-.304687-.042968-.457031-.023438-.253906-.050782-.503906-.078126-.757812-.015624-.15625-.03125-.3125-.046874-.46875-.027344-.257813-.054688-.515626-.082032-.769532-.015625-.148437-.03125-.292968-.046875-.4375-.03125-.296875-.066406-.59375-.101562-.886718-.007813-.085938-.015625-.167969-.027344-.253907-.472656-4.085937-1.070313-8.136719-1.792969-12.144531-.007812-.042969-.015625-.082031-.019531-.125-.054687-.296875-.109375-.597656-.164063-.894531-.023437-.113281-.042968-.226563-.0625-.339844-.0625-.332031-.128906-.667969-.191406-1-.011718-.066406-.023437-.128906-.035156-.191406-.078125-.398438-.15625-.800781-.238281-1.203125-.019531-.101563-.039063-.203125-.058594-.304688-.0625-.292968-.121094-.585937-.179687-.878906-.03125-.152344-.0625-.300781-.09375-.449219-.050782-.246093-.105469-.492187-.15625-.738281-.035157-.171875-.070313-.339844-.109376-.511719-.046874-.21875-.09375-.4375-.140624-.65625-.042969-.179687-.082032-.359375-.121094-.539062-.050782-.214844-.097656-.429688-.144532-.644531-.039062-.183594-.082031-.363282-.121093-.539063-.050781-.210937-.097657-.425781-.148438-.640625-.027343-.121094-.058593-.246094-.085937-.367188-.933594-4-1.996094-7.957031-3.171875-11.863281-.019531-.070312-.042969-.140625-.066407-.214843-.050781-.171876-.105468-.34375-.15625-.519532-.0625-.207031-.128906-.417968-.191406-.628906-.058594-.183594-.117187-.371094-.175781-.554688-.125-.402343-.25-.804687-.378906-1.207031-.046875-.144531-.089844-.28125-.136719-.425781-.070312-.21875-.140625-.4375-.214844-.65625-.050781-.164062-.105468-.328125-.160156-.492188-.066406-.203124-.132812-.410156-.203125-.613281-.058594-.175781-.117187-.347656-.171875-.519531-.070312-.207031-.140625-.410156-.207031-.613281-.058594-.171875-.117188-.34375-.175781-.515625-.070313-.203125-.140626-.40625-.210938-.609375-.058594-.171875-.117188-.339844-.179688-.511719-.070312-.210938-.144531-.417969-.21875-.628906-.050781-.140625-.097656-.28125-.152343-.421875-.070313-.195313-.136719-.394531-.207031-.585938-.515626-1.429687-1.042969-2.855469-1.589844-4.269531l-9.332032 3.597656c.605469 1.570313 1.191407 3.148438 1.753907 4.734375.027343.082031.054687.160157.085937.238281.085938.25.175782.503907.261719.753907.035156.101562.070313.199219.105469.300781.082031.238281.164062.476562.246094.710938.039062.121093.082031.238281.121093.359374.078125.230469.15625.464844.234375.695313.039063.117187.078125.230469.117188.347656.078125.238281.15625.480469.238281.71875.035156.109375.070313.214844.105469.320313.078125.242187.15625.484375.234375.726562.03125.097656.0625.191406.09375.289063.144531.453125.289062.910156.429687 1.367187.042969.136719.089844.28125.132813.421875.058593.191407.117187.378907.175781.574219.054688.171875.109375.347656.160156.523438 1.167969 3.871093 2.21875 7.792968 3.140625 11.765624.054688.222657.101563.445313.15625.667969.03125.148438.066407.296875.097657.441407.050781.226562.101562.453124.152343.679687.035157.152344.070313.308594.101563.460937.050781.21875.09375.4375.144531.65625.03125.160157.070313.320313.101563.480469.050781.234375.097656.46875.148437.703125.027344.136719.054687.269532.082031.40625.070313.339844.140625.683594.210938 1.027344.007812.03125.011718.0625.019531.089844.074219.378906.148437.761718.222656 1.140625.019531.097656.039063.203125.058594.300781.054687.28125.105469.5625.160156.84375.023438.121094.046875.246094.066407.371094.046874.253906.09375.507812.136718.757812.714844 3.941406 1.300782 7.925782 1.761719 11.949219.03125.285156.0625.570313.09375.855469.011719.109375.023437.222656.035156.335937.027344.265625.058594.53125.085938.796875.011719.136719.027343.277344.042969.414063.023437.253906.050781.511719.074218.769531.011719.125.023438.253906.035156.382812.023438.25.046876.5.070313.75.015625.148438.027344.300782.039063.449219.023437.242188.042968.484375.0625.726563.011718.140625.023437.28125.035156.421875.023437.261719.042968.523437.0625.785156.011718.128906.019531.253906.03125.382813.019531.257812.039062.519531.058594.78125.007812.132812.019531.265624.03125.402343.023437.375.050781.75.074218 1.128907.257813 4.007812.386719 8.050781.386719 12.128906 0 .375-.003906.753906-.003906 1.132812 0 .09375-.003907.183594-.003907.277344 0 .277344-.003906.554688-.007812.832031 0 .121094 0 .242188-.003906.359375 0 .113282-.003906.226563-.003906.335938-.003907.179687-.007813.355468-.007813.535156-.003906.074219-.003906.148438-.003906.226562-.003907.199219-.007813.402344-.015625.601563-.003906.179687-.007813.355469-.011719.53125 0 .023437-.003906.046875-.003906.070313-.007813.347656-.019531.695312-.027344 1.039062-.003906.085938-.007813.171875-.007813.257812-.011718.296876-.019531.589844-.03125.886719-.003906.09375-.003906.1875-.011718.28125-.011719.289063-.023438.582031-.035156.871094v.007813c-.003907.082031-.007813.167968-.011719.25-.015625.363281-.035157.726562-.050781 1.085937 0 .019531-.003907.035156-.003907.054687v.003907c-.015625.363281-.035156.722656-.054687 1.082031-.007813.09375-.015625.1875-.019532.28125-.015624.28125-.03125.5625-.046874.839844-.007813.101562-.011719.199218-.019532.300781-.019531.296875-.039062.601563-.058594.898437-.007812.070313-.011718.140626-.015624.210938-.027344.371094-.050782.742188-.078126 1.109375-.003906.058594-.007812.113281-.015624.167969-.023438.3125-.046876.625-.074219.9375-.007813.09375-.015625.191406-.023438.289062-.023437.277344-.046875.554688-.074219.832032-.007812.097656-.015624.195312-.023437.296874-.027344.300782-.054687.605469-.085937.90625-.003907.066407-.011719.132813-.015626.199219-.035156.351563-.070312.699219-.105468 1.050781-.011719.121094-.023438.242188-.039063.363282-.023437.238281-.046875.480468-.074219.71875-.015624.140625-.03125.285156-.046874.429687-.019532.207031-.046876.414063-.070313.621094-.015625.140625-.03125.277344-.046875.417969-.011719.082031-.019531.167968-.03125.25-.023438.199218-.046875.402344-.070312.601562-.007813.078125-.015626.152344-.023438.226563-.011719.078125-.019531.15625-.027344.230469-.035156.265624-.066406.53125-.101562.796874-.019532.164063-.039063.332032-.0625.496094-.023438.179688-.046875.359375-.070313.539063-.023437.179687-.046875.363281-.070312.542969-.023438.164062-.046875.328124-.066407.492187-.027343.191406-.054687.386719-.082031.578125-.015625.121094-.035156.246094-.050781.367188-.058594.414062-.121094.828124-.183594 1.242187-.003906.039063-.011718.074219-.015625.113281-.011719.078125-.019531.152344-.03125.226563-.035156.214843-.066406.429687-.097656.644531-.011719.050781-.019531.101562-.027344.15625-.011719.078125-.023437.160156-.035156.238281-.035156.214844-.070313.429688-.101563.644531-.019531.109376-.039062.222657-.054687.335938-.03125.183594-.0625.371094-.089844.554688-.644531 3.878906-1.40625 7.714843-2.285156 11.511718-.007813.03125-.015625.0625-.023437.097656-.082032.351563-.164063.699219-.25 1.050782-.015626.066406-.03125.136718-.046876.203125-.078124.324219-.15625.648437-.234374.96875-.015626.066406-.035157.136719-.050782.207031-.078125.316406-.160156.632812-.238281.953125-.019531.082031-.042969.164063-.0625.242187-.078125.308594-.15625.617188-.234375.925782-.023438.078125-.042969.15625-.0625.234375-.082031.308593-.160156.617187-.242188.921875-.023437.082031-.042968.164062-.066406.25-.082031.304687-.164062.605468-.246094.910156-.023437.082031-.046874.167969-.070312.25-.082031.300781-.164062.601562-.25.902344-.023438.085937-.046875.171875-.070312.257812-.085938.296875-.167969.59375-.253907.890625-1.089843 3.808594-2.300781 7.574219-3.625 11.28125-.128906.355469-.257812.71875-.390625 1.074219 0 .007812-.003906.011719-.007812.019531-.96875 2.671875-2.003906 5.3125-3.089844 7.925781-1.507812 3.617188-3.125 7.171876-4.847656 10.667969-.164063.332031-.328125.664063-.496094.996094-.015625.035156-.03125.070313-.050781.105469-.160157.320312-.320313.640625-.484375.960937-.023438.042969-.042969.085938-.066406.132813-.160157.304687-.316407.613281-.476563.921875-.027344.054687-.054687.109375-.085937.164062-.15625.304688-.316407.609375-.472657.914063-.027343.046875-.050781.09375-.074219.140625-.171874.324219-.34375.644531-.515624.96875-.011719.027343-.027344.054687-.042969.082031-.570313 1.066406-1.148438 2.125-1.734375 3.179688-1.96875 3.515624-4.042969 6.960937-6.226563 10.332031-.097656.15625-.199219.308593-.296875.460937-.117187.175782-.230468.347656-.34375.523438-.101562.152344-.199218.300781-.296875.453125-.117187.179687-.238281.355469-.355469.535156-.09375.140625-.1875.28125-.285156.421875-.121094.1875-.246094.371094-.371094.554688-.089843.132812-.179687.265624-.265624.394531-.132813.195312-.265626.390625-.398438.585937-.078125.109375-.152344.21875-.226562.328125-.148438.21875-.296876.433594-.445313.648438-.054687.078125-.109375.160156-.167969.238281-.167968.246094-.335937.488281-.507812.730469-.015625.023437-.039063.050781-.054688.078125-2.765625 3.933594-5.679687 7.757812-8.734375 11.464844-.042969.050781-.085937.105468-.128906.15625-.199219.242187-.398437.484374-.597656.722656-.042969.050781-.085938.101562-.128907.152344-.199218.238281-.402343.476562-.601562.71875-.046875.050781-.089844.105468-.132812.15625-.203126.242187-.40625.480468-.609376.71875-.042968.046874-.082031.09375-.125.140624-.207031.246094-.417968.488282-.628906.730469-.027344.035157-.058594.070313-.085937.101563-.222657.257812-.445313.511718-.671875.769531-.007813.007813-.011719.015625-.019532.023437-2.710937 3.089844-5.519531 6.089844-8.425781 8.996094-.710937.710938-1.429687 1.417969-2.152343 2.117188-.144532.140625-.289063.28125-.433594.417968-.140625.136719-.285156.273438-.429688.410157-.132812.128906-.269531.257812-.402344.386719-.152343.144531-.304687.289062-.457031.433593-.117187.113281-.238281.226563-.355469.335938-.175781.164062-.347656.328125-.527343.492187-.089844.082032-.179688.167969-.269531.25-.195313.183594-.394532.367188-.59375.554688-.070313.0625-.140626.128906-.214844.191406-.210938.195312-.425782.394531-.636719.585938-.050781.042968-.097656.089843-.148437.132812-3.8125 3.457031-7.765626 6.761719-11.855469 9.902344-.054688.042968-.113281.085937-.167969.132812-.242188.183594-.488281.371094-.730469.554688-.066406.046875-.128906.097656-.191406.144531-.238281.179687-.476563.359375-.714844.535156-.066406.050781-.136719.101563-.203125.152344-.246094.1875-.496094.371094-.746094.554687-.035156.027344-.070312.050782-.105468.074219-.273438.207031-.550782.40625-.824219.609375-.019531.011719-.03125.023438-.046875.03125-4.429688 3.230469-9.003906 6.265625-13.714844 9.105469-.191406.113281-.386718.230469-.578125.347656-.144531.085938-.289062.171875-.433593.257813-.195313.117187-.390626.230468-.589844.347656-.132813.078125-.273438.160156-.410156.242188-.214844.125-.429688.25-.640626.375-.121093.066406-.238281.136718-.359374.203124-.222657.132813-.449219.261719-.675782.390626-.117187.066406-.234375.132812-.351562.199218-.234375.132813-.464844.265625-.699219.394532-.109375.0625-.214844.125-.324219.183593-.273437.152344-.546875.304688-.820312.457031-.0625.03125-.125.070313-.183594.101563-.699219.386719-1.398438.765625-2.101562 1.144531-3.4375 1.839844-6.941407 3.578125-10.503907 5.207032-.328125.152343-.660156.300781-.992187.453124-.03125.011719-.066406.027344-.097656.042969-.335938.148438-.671876.300781-1.007813.449219-.027344.011719-.054687.023438-.085937.039062-.335938.148438-.675782.296876-1.015626.445313-.027343.015625-.058593.027344-.089843.039063-.335938.148437-.671875.292968-1.011719.4375-.035156.011718-.066406.03125-.101562.042968-.332032.140625-.660157.28125-.992188.417969-.042969.019531-.089844.039063-.136719.054687-.328125.140626-.65625.277344-.984375.410157-.039062.015625-.078125.035156-.117187.050781-.34375.140625-.691407.28125-1.035157.421875-.019531.007813-.042968.015625-.066406.027344-.363281.148437-.726562.292969-1.09375.4375-3.605468 1.429687-7.265625 2.746093-10.972656 3.953125-1.535156.5-3.078125.980468-4.628906 1.4375-.007813.003906-.011719.003906-.015625.007812-.378907.113282-.753907.222656-1.132813.332032-.035156.007812-.066406.019531-.101562.03125-.34375.097656-.6875.195312-1.027344.292968-.078125.019532-.15625.042969-.234375.066406-.300781.082032-.601563.167969-.902344.25-.097656.027344-.199219.054688-.296875.082032-.289062.078125-.570312.15625-.859375.234375-3.878906 1.042969-7.808593 1.964843-11.789062 2.761719-.207031.039062-.417969.082031-.625.121093-.175781.035157-.351563.070313-.53125.105469-.207031.039062-.421875.082031-.632813.121094-.1875.039062-.375.074218-.5625.105468-.195312.039063-.390625.074219-.585937.109376-.203125.035156-.402344.074218-.601563.109374-.183594.035157-.367187.066407-.550781.097657-.210937.039062-.421875.074219-.628906.109375-.1875.035156-.371094.066406-.554688.097656-.207031.035156-.410156.070312-.617187.105469-.179688.027343-.359375.058593-.539063.089843-.21875.035157-.441406.070313-.660156.105469-.164063.027344-.332031.054688-.5.078125-.226563.039063-.453125.074219-.679687.105469-.164063.027344-.328126.050781-.488282.074219-4.101562.621094-8.246094 1.109375-12.429687 1.457031-.121094.007813-.242188.019531-.363281.027344-.273438.023437-.542969.046875-.820313.066406-.128906.007813-.257813.019531-.390625.027344-.261719.023437-.527344.039062-.789062.058593-.136719.011719-.273438.019532-.410157.027344-.269531.019532-.539062.039063-.808593.054688-.125.007812-.25.015625-.375.023437-.265626.015625-.535157.035157-.800782.050781-.144531.007813-.292968.015626-.4375.023438-.253906.011719-.511718.027344-.769531.042969-.136719.007812-.277344.011719-.414063.019531-.261718.011719-.519531.023438-.78125.035156-.144531.007813-.292968.011719-.4375.019532-.261718.011718-.523437.023437-.78125.03125-.136718.007812-.269531.011718-.40625.015624-2.3125.082032-4.632812.128907-6.964843.128907-1.910157 0-3.816407-.03125-5.71875-.085938-.15625-.003906-.3125-.011719-.46875-.015625-.253907-.007812-.507813-.019531-.761719-.027344-.152344-.003906-.304688-.007812-.457031-.015624-.238281-.007813-.480469-.019532-.71875-.027344-.164063-.007813-.324219-.015625-.488281-.023438-.253907-.011718-.511719-.023437-.765626-.035156-.140624-.003906-.277343-.011719-.414062-.019531-.257812-.015625-.515625-.027344-.777344-.042969-.144531-.007812-.289062-.015625-.433594-.023438-.261718-.015624-.519531-.03125-.773437-.046874-.140625-.007813-.28125-.015626-.421875-.023438-.253906-.015625-.507812-.035156-.761719-.050781-.148437-.011719-.292969-.019531-.441406-.03125-.25-.015625-.5-.035157-.746094-.054688-.15625-.011719-.308593-.023437-.460937-.035156-4.1875-.324219-8.339844-.78125-12.445313-1.378906-.144531-.019531-.285156-.039063-.429687-.058594-.234375-.035156-.46875-.070313-.699219-.105469-.167969-.027344-.335937-.050781-.5-.074218-.222656-.035157-.441406-.070313-.664063-.105469-.175781-.027344-.351562-.054688-.523437-.085938-.210937-.03125-.425781-.066406-.636719-.101562-.183594-.03125-.367187-.0625-.550781-.09375-.207031-.035157-.414063-.070313-.617187-.101563-.191407-.035156-.375-.066406-.5625-.097656-.203126-.035156-.402344-.070312-.601563-.105469-.195313-.035156-.386719-.070312-.578125-.105469-.199219-.035156-.394531-.070312-.589844-.105468-.199218-.039063-.394531-.074219-.59375-.113282-.191406-.035156-.378906-.070312-.570312-.105468-.199219-.039063-.398438-.078125-.59375-.113282-4-.777343-7.953125-1.675781-11.855469-2.699218-.257813-.066406-.515625-.136719-.769531-.203125-.125-.035157-.25-.066407-.375-.101563-.277344-.074218-.554688-.152344-.835938-.226562-.097656-.027344-.199218-.054688-.296875-.082032-.304687-.085937-.609375-.171874-.914062-.257812-.074219-.019531-.152344-.042969-.226563-.0625-.347656-.097656-.699218-.199219-1.046875-.300781-.027343-.007813-.054687-.015625-.078125-.023438-1.550781-.449219-3.09375-.917969-4.625-1.40625-3.722656-1.183593-7.394531-2.480469-11.007812-3.886719-.367188-.144531-.738282-.289062-1.101563-.429687-.035156-.015625-.070312-.03125-.105469-.042969-.335937-.136718-.671874-.269531-1.007812-.40625-.042969-.015625-.089844-.035156-.128906-.050781-.335938-.136719-.671875-.277344-1.007813-.414063-.03125-.011718-.0625-.023437-.089843-.035156-.335938-.136718-.671876-.277344-1.007813-.417968-.046875-.019532-.089844-.039063-.136719-.058594-.332031-.136719-.660156-.277344-.988281-.417969-.035156-.015625-.074219-.03125-.109375-.046875-.339844-.144531-.679688-.292969-1.015625-.4375-.027344-.015625-.054687-.027344-.082031-.039062-.34375-.148438-.691406-.296876-1.035156-.453126-.023438-.007812-.046876-.023437-.070313-.03125-.355469-.160156-.710937-.316406-1.066406-.476562-3.5625-1.605469-7.0625-3.316406-10.503907-5.132812-.355468-.1875-.710937-.375-1.066406-.566407-.015625-.011719-.035156-.019531-.054687-.027343-.328125-.175782-.652344-.351563-.980469-.53125-.0625-.035157-.128906-.070313-.195312-.109376-.277344-.152343-.5625-.304687-.839844-.460937-.085938-.046875-.167969-.089844-.25-.136719-.265625-.148437-.527344-.292968-.792969-.441406-.089844-.050781-.175781-.101562-.265625-.148438-.25-.140624-.5-.28125-.75-.425781-.109375-.0625-.21875-.125-.328125-.1875-.222656-.128906-.449219-.257812-.675781-.386719-.125-.074218-.25-.148437-.375-.21875-.214844-.125-.425782-.25-.640625-.375-.128907-.074218-.257813-.148437-.386719-.226562-.207031-.121094-.417969-.246094-.628906-.371094-4.363282-2.59375-8.613282-5.363281-12.738282-8.292968-.042968-.03125-.085937-.0625-.132812-.09375-.261719-.183594-.523438-.371094-.785156-.5625-.046875-.03125-.089844-.0625-.140625-.097657-.257813-.1875-.515625-.371093-.769531-.5625-.054688-.035156-.105469-.074219-.160157-.113281-.257812-.1875-.515625-.378906-.769531-.566406-.046875-.035156-.09375-.070313-.136719-.101563-.257812-.191406-.511719-.378906-.765625-.570312-.054687-.039063-.109375-.082031-.164062-.121094-.253906-.191406-.511719-.382813-.765625-.574219-.039063-.03125-.078125-.0625-.117188-.089844-4.132812-3.132812-8.132812-6.4375-11.988281-9.894531-.03125-.027343-.0625-.054687-.089844-.082031-.226562-.199219-.449218-.402344-.667968-.605469-.074219-.066406-.144532-.128906-.214844-.195312-.203125-.183594-.40625-.367188-.605469-.550781-.082031-.078126-.167969-.152344-.25-.230469-.195313-.179688-.390625-.359375-.582031-.539063-.097656-.089844-.191406-.175781-.285156-.265625-.175782-.164062-.351563-.328125-.527344-.492187-.121094-.113282-.242188-.226563-.359375-.339844-.15625-.144531-.308594-.289062-.460938-.4375-.140625-.128906-.273437-.261719-.414062-.394531-.992188-.949219-1.976563-1.910157-2.945313-2.878907-2.359375-2.359374-4.652344-4.78125-6.882812-7.261718-.027344-.03125-.054688-.0625-.085938-.089844-.226562-.253906-.453125-.511719-.683594-.769531-.019531-.023438-.042968-.046875-.0625-.070313-.214843-.242187-.429687-.484375-.640624-.726562-.046876-.054688-.089844-.105469-.136719-.15625-.203125-.230469-.402344-.464844-.601563-.691406-.050781-.058594-.097656-.113282-.144531-.167969-.203125-.234375-.40625-.46875-.605469-.703125-.046875-.050782-.09375-.109375-.140625-.164063-.203125-.238281-.40625-.472656-.605469-.710937-.039062-.046875-.082031-.09375-.121093-.144532-.210938-.25-.421875-.5-.628907-.75-.023437-.023437-.046874-.050781-.066406-.078124-3.089844-3.699219-6.039062-7.519532-8.839844-11.453126-.015624-.027343-.035156-.050781-.054687-.074218-.183594-.257813-.363281-.519532-.546875-.777344-.042969-.058594-.085938-.121094-.128906-.183594-.164063-.230468-.324219-.460937-.488282-.695312-.0625-.089844-.125-.179688-.1875-.269532-.152343-.21875-.300781-.4375-.449218-.65625-.070313-.105468-.144532-.207031-.214844-.308593-.140625-.207031-.277344-.414063-.417969-.621094-.085937-.121094-.167969-.246094-.25-.371094-.132812-.191406-.257812-.382812-.386719-.574219-.089843-.136718-.183593-.273437-.273437-.410156-.121094-.183594-.246094-.367187-.367187-.550781-.09375-.144531-.1875-.289063-.285157-.433594-2.207031-3.367187-4.308593-6.808593-6.300781-10.324219-.390625-.695312-.78125-1.390624-1.164062-2.085937-.027344-.046875-.050782-.09375-.078126-.140625-.164062-.300781-.328124-.601562-.492187-.902344-.035156-.0625-.066406-.121094-.097656-.183594-.15625-.289062-.3125-.578124-.46875-.871093-.035157-.066407-.074219-.132813-.109375-.203125-.148438-.273438-.292969-.554688-.441406-.832032-.042969-.085937-.089844-.175781-.136719-.265624-.136719-.261719-.277344-.527344-.414063-.792969-.042968-.082031-.085937-.167969-.128906-.25-.140625-.277344-.285156-.558594-.429688-.839844-.035156-.070313-.070312-.136719-.105468-.207031-.144532-.289063-.292969-.578125-.4375-.871094-1.753906-3.5-3.398438-7.058594-4.9375-10.679688-1.097656-2.59375-2.140625-5.21875-3.125-7.871093-.003906-.007813-.007813-.015625-.007813-.023438-.136719-.367187-.273437-.734375-.40625-1.101562-1.34375-3.6875-2.574219-7.429688-3.6875-11.222657-.085937-.292968-.167969-.585937-.253906-.878906-.027344-.097656-.058594-.199218-.085937-.296875-.078126-.273437-.15625-.550781-.234376-.828125-.03125-.113281-.0625-.222656-.09375-.339844-.078124-.277343-.15625-.554687-.234374-.835937-.027344-.097656-.054688-.195313-.078126-.292969-.082031-.292968-.160156-.582031-.238281-.875-.023437-.097656-.050781-.191406-.078125-.289062-.074218-.289063-.148437-.574219-.222656-.859375-.027344-.101563-.054688-.203125-.082031-.304688-.074219-.296875-.148438-.589843-.222657-.886719-.023437-.089843-.046874-.175781-.070312-.265624-.074219-.308594-.152344-.613282-.226562-.921876-.019532-.082031-.042969-.164062-.0625-.246093-.078126-.324219-.15625-.648438-.234376-.96875-.917968-3.839844-1.71875-7.726563-2.394531-11.65625-.039062-.210938-.074219-.425781-.109375-.636719-.03125-.179688-.058594-.359375-.089844-.539062-.03125-.1875-.0625-.375-.09375-.566407-.011718-.085937-.027343-.175781-.039062-.265625-.046875-.269531-.089844-.542968-.132812-.816406-.007813-.0625-.019532-.121094-.027344-.183594-.132813-.839844-.253906-1.679687-.375-2.523437-.007813-.046875-.015625-.101563-.023438-.152344-.027344-.21875-.0625-.441406-.089844-.660156-.019531-.128907-.035156-.261719-.054687-.390625-.027344-.207032-.054687-.414063-.085937-.621094-.015626-.144531-.035157-.289062-.054688-.433594-.027344-.195312-.050781-.394531-.074219-.589844-.027343-.203124-.050781-.410156-.078125-.617187-.03125-.261719-.0625-.523437-.09375-.78125-.023437-.203125-.046875-.40625-.070312-.609375-.019532-.167969-.039063-.339844-.058594-.507812-.023438-.199219-.042969-.394532-.066406-.59375-.015625-.15625-.035156-.3125-.050782-.464844-.019531-.207032-.042968-.414063-.0625-.621094-.015624-.152344-.03125-.304688-.046874-.460938-.035157-.339843-.070313-.683593-.101563-1.023437-.007813-.078125-.015625-.15625-.023437-.230469-.027344-.28125-.050782-.566406-.078126-.847656-.011718-.128906-.019531-.25-.03125-.378906-.023437-.246094-.042968-.492188-.066406-.738282-.007812-.121093-.019531-.242187-.027344-.363281-.027343-.289062-.050781-.582031-.070312-.875-.007812-.066406-.011719-.132812-.015625-.199219-.03125-.367187-.058594-.738281-.082031-1.105468-.003906-.070313-.011719-.140625-.015625-.210938-.019531-.296875-.039063-.601562-.058594-.898437-.003906-.101563-.011719-.203125-.019531-.300781-.015625-.273438-.03125-.546876-.046875-.820313-.007813-.101563-.011719-.207031-.019531-.3125 0-.042969-.003907-.085937-.003907-.125-.019531-.308594-.035156-.621094-.050781-.933594 0-.003906 0-.007812 0-.011719-.003906-.078124-.007812-.160156-.011719-.238281-.015625-.304687-.03125-.605469-.042969-.90625-.003906-.070312-.007812-.140625-.007812-.210937-.003906-.078125-.007812-.15625-.011719-.234375-.007812-.226563-.019531-.457031-.027343-.6875-.003907-.09375-.007813-.1875-.007813-.28125-.011719-.296875-.023437-.589844-.03125-.886719-.003906-.082031-.007813-.167969-.007813-.25-.011718-.347656-.019531-.695312-.03125-1.042969 0-.023437 0-.042969 0-.0625-.011718-.382812-.019531-.761719-.027343-1.144531-.003907-.078125-.003907-.160156-.003907-.242188-.007812-.292968-.011718-.585937-.015624-.878906 0-.105468 0-.210937-.003907-.316406-.003906-.308594-.003906-.613281-.007812-.917969 0-.074219 0-.152343 0-.226562-.003907-.371094-.003907-.742188-.003907-1.113281 0-3.621094.101563-7.21875.304688-10.789063.011719-.179687.019531-.359375.03125-.539063.011719-.207031.023438-.414062.039062-.621093.011719-.183594.023438-.367188.035157-.550781.011719-.195313.027343-.390626.042969-.585938.011718-.199219.027343-.398438.039062-.597656.015625-.1875.027344-.375.039062-.558594.015626-.199219.03125-.394531.046876-.59375.015624-.1875.03125-.375.046874-.566406.015626-.199219.03125-.402344.050782-.605469.03125-.347656.058594-.695313.089844-1.042969.015624-.199218.035156-.394531.054687-.597656s.039063-.410156.058594-.613281c.015625-.171875.03125-.34375.050781-.515625.019531-.199219.039062-.394532.058594-.585938.019531-.199218.039062-.394531.0625-.59375.441406-4.15625 1.019531-8.273437 1.726562-12.347656.023438-.128906.046875-.261719.066406-.390625.042969-.238281.085938-.476563.128907-.71875.023437-.132813.046875-.261719.074219-.394531.039062-.234375.085937-.46875.128906-.703125.027344-.140625.050781-.28125.078125-.417969.042969-.226562.085937-.453125.128906-.679688.027344-.148437.058594-.296874.085937-.445312.042969-.226562.089844-.453125.132813-.679688.027344-.125.050781-.25.078125-.378906.050781-.25.101562-.503906.152344-.757812.015625-.0625.027344-.125.042968-.191406 1.0625-5.152344 2.339844-10.226563 3.816407-15.214844.015625-.042969.027343-.082032.039062-.125.085938-.289063.171875-.585938.261719-.875.019531-.058594.035156-.117188.054688-.171875.085937-.289063.175781-.578125.265624-.867188.015626-.058593.035157-.113281.050782-.171875.09375-.292968.183594-.589844.277344-.882812.011718-.039063.027343-.078125.039062-.117188.515625-1.636718 1.058594-3.265625 1.621094-4.882812.003906-.019532.011718-.039063.019531-.058594.6875-1.984375 1.410156-3.953125 2.164063-5.90625l-9.332032-3.597656c-.75 1.945312-1.46875 3.90625-2.160156 5.878906h-.003906c-.035156.109375-.074219.21875-.109375.328125-.015625.042969-.03125.085937-.046875.128906-.457032 1.328125-.90625 2.664063-1.339844 4.007813-.015625.042968-.03125.089844-.046875.136718-.089844.289063-.179687.570313-.273437.859376-.027344.085937-.054688.175781-.082032.265624-.085937.269532-.171875.542969-.257812.816407-.027344.097656-.0625.199219-.089844.296875-.085938.273437-.167969.542968-.25.816406-.03125.101562-.0625.207031-.09375.308594-.078125.265625-.160156.535156-.238281.800781-.03125.105469-.0625.210937-.09375.316406-.066407.222657-.132813.445313-.195313.667969-1.144531 3.914062-2.167968 7.878906-3.070312 11.890625-.011719.054687-.023438.105469-.035156.15625-.023438.117187-.050782.234375-.078126.351563-.210937.960937-.417968 1.921874-.617187 2.886718-.007813.042969-.015625.085938-.027344.128906-.058593.289063-.117187.578126-.175781.867188-.019531.105469-.042969.210938-.0625.3125-.050781.265625-.101562.527344-.152344.789062-.027344.128907-.050781.257813-.078125.390626-.050781.253906-.097656.511718-.144531.765624-.027344.136719-.050781.273438-.078125.414063-.046875.246094-.09375.496094-.136719.746094-.027344.136719-.050781.273437-.074218.410156-.050782.261719-.09375.523437-.140626.785156-.019531.097657-.035156.199219-.054687.300781-.039063.246094-.085937.488282-.125.734376-.683594 4.015624-1.25 8.070312-1.6875 12.160156-.007813.078125-.015625.152344-.023437.230468-.019532.195313-.042969.394532-.0625.589844-.019532.203125-.042969.402344-.0625.601563-.019532.21875-.042969.4375-.0625.65625-.019532.179687-.035157.363281-.050782.546875-.027344.261718-.050781.523437-.074218.785156-.019532.214844-.039063.429688-.054688.644531-.027344.320313-.058594.644531-.082031.964844-.011719.140625-.023438.285156-.035157.425781-.023437.269532-.042968.539063-.0625.808594-.011718.15625-.019531.3125-.035156.464844-.015625.246094-.035156.488281-.050781.734375-.011719.1875-.023437.375-.039063.5625-.011718.214843-.027343.429687-.039062.644531-.011719.199219-.023438.394531-.039062.59375-.011719.207031-.023438.417969-.035157.628906-.003906.105469-.011719.207032-.015625.316406-.203125 3.644532-.304687 7.320313-.304687 11.015626 0 .402343 0 .804687.003906 1.207031v.046875c0 .121094 0 .242187.003906.363281 0 .222656.003907.445313.003907.667969.003906.160156.003906.320312.007812.480468.003906.246094.007812.488282.011719.734376.003906.148437.007812.296874.007812.449218.007813.371094.015625.738282.023438 1.109375.003906.097657.007812.195313.007812.292969.007813.289062.015625.574219.023438.863281.003906.148438.011719.296875.015625.445313.007812.246094.019531.496094.027344.742187.003906.144531.007812.292969.015624.441407.007813.261718.019532.519531.03125.78125.003907.128906.007813.253906.015626.382812.015624.367188.035156.738281.050781 1.105469.007812.132812.015625.265625.023437.402343.015625.25.027344.5.039063.75.003906.070313.007812.140626.011719.210938v.011719c.019531.355469.042968.707031.066406 1.058593l.011718.1875c.050782.804688.105469 1.605469.167969 2.410157 0 .035156.003907.074219.007813.109375.023437.34375.054687.691406.082031 1.035156.007813.097656.015625.199219.023437.296875.027344.296875.050782.59375.074219.894531.007813.097656.019531.191406.027344.289063.035156.375.066406.746093.101563 1.121093 0 .007813.003906.015626.003906.023438.035156.378906.074218.761719.109375 1.140625.015625.125.027343.253906.042969.382813.023437.253906.050781.503906.078124.753906.015626.144531.027344.285156.042969.425781.027344.242187.054688.484375.082031.726563.015626.144531.03125.289062.050782.433593.03125.277344.0625.550781.097656.824219.003906.035156.007812.066406.011719.101562.082031.675782.164062 1.355469.253906 2.03125.007813.046876.011719.09375.019531.136719.035156.28125.074219.558594.113282.835938.007812.078125.019531.152343.03125.230469.167968 1.230468.347656 2.457031.535156 3.679687.011718.050781.019531.097656.023437.148437.015625.09375.03125.191407.046875.289063.007813.066406.019532.132813.03125.199219.046875.285156.09375.570312.140625.855468.019531.128907.039063.253907.0625.382813.039063.230469.078125.460937.117188.691406.03125.1875.0625.375.097656.566407.003906.023437.007813.054687.011719.078124.703125 4.054688 1.527344 8.066407 2.46875 12.027344.007812.03125.015625.058594.023437.085938.085938.371094.175781.738281.265625 1.109375.023438.097656.050782.191406.070313.289062l.234375.9375c.023437.097657.050781.195313.074218.292969.078126.3125.15625.621094.238282.933594.027344.101562.050781.199218.078125.300781.078125.304687.15625.609375.238281.910156.03125.117188.0625.230469.09375.347657.074219.285156.152344.570312.230469.855468.03125.125.066406.25.101562.375.078125.28125.15625.566406.234375.847656.03125.121094.066406.242188.101563.363282.078125.277344.15625.558594.234375.835937.039062.132813.078125.261719.113281.394531.078125.273438.160156.542969.238281.8125.019532.070313.039063.136719.058594.203126 1.160156 3.941406 2.4375 7.832031 3.832031 11.667968.007813.019532.015625.035156.023438.058594.125.34375.25.6875.378906 1.03125.019531.050781.035156.101562.054687.152344.140626.367187.277344.738281.417969 1.109375.007813.019531.015625.039062.023438.058593.902343 2.378907 1.847656 4.738282 2.835937 7.074219.003906.007813.003906.011719.007813.015625 1.597656 3.773438 3.316406 7.488282 5.140625 11.136719.015625.035156.035156.070313.054687.109375.152344.300781.304688.601562.457031.902344.042969.089844.089844.183594.136719.273437.140625.277344.285157.554688.425781.832031.050782.097657.101563.199219.152344.296876.144532.273437.285156.550781.429688.820312.046875.09375.097656.1875.144531.28125.148437.277344.296875.558594.445313.839844.050781.089844.097656.183594.144531.273437.152343.28125.300781.5625.453125.839844.046875.085937.09375.171875.140625.257813.152343.285156.308593.566406.464843.851562.046876.085938.09375.171875.140626.257812.191406.351563.382812.699219.578124 1.046876.003907.007812.007813.011718.011719.019531 2.203125 3.953125 4.542969 7.816406 7.003907 11.589843.0625.09375.121093.183594.179687.273438.136719.210938.273437.421875.414063.628906.097656.148438.191406.296875.289062.445313.128906.1875.25.375.378906.5625.109375.164062.222656.332031.332032.496093.117187.175782.234374.347657.351562.523438.117188.167969.230469.335938.34375.503906.117188.167969.230469.335938.34375.503906.121094.175782.242188.351563.363281.523438.109375.15625.214844.3125.324219.46875.128906.179688.253906.363281.382812.546875.109376.15625.222657.316406.332032.472656.125.175781.246094.351563.371094.523438.105468.152343.214843.304687.324218.453125.132813.191406.269532.378906.402344.566406.09375.132812.1875.257812.28125.390625.128906.175781.257812.355469.386719.535156 2.414062 3.308594 4.925781 6.539063 7.535156 9.691407.132813.160156.269531.324218.40625.488281.0625.078125.132813.160156.199219.242187.183594.21875.371094.4375.554687.652344.082031.097656.160157.195312.242188.289062.175781.207032.351562.417969.527343.621094.089844.105469.175782.207032.265626.3125.179687.207032.359374.417969.539062.625.078125.09375.160156.183594.234375.273438.1875.214844.375.429687.558594.640625.085937.097656.167969.191406.25.285156.183593.210937.371093.421875.558593.632813.070313.078124.140626.15625.210938.238281.207031.230469.410156.460937.621094.695312.027344.03125.0625.066407.089844.101563.484374.539062.972656 1.074218 1.460937 1.609375 2.773437 3.011719 5.636719 5.941406 8.585937 8.777343.136719.132813.277344.265626.414063.398438.085937.082031.175781.164062.261719.246094.203125.195312.40625.386718.609375.578125.089843.085937.183593.171875.277343.261719.207032.195312.417969.390624.625.585937.082032.074219.164063.152344.242188.226563.210938.199218.425781.394531.636719.589843.089843.082031.183593.164063.273437.25.203125.1875.40625.375.613282.558594.097656.089844.199218.179687.296874.269531.207032.1875.410157.371094.617188.554688.082031.074218.164062.148437.246094.222656.21875.199219.441406.394531.664062.59375.066406.054688.132813.113281.199219.171875.523437.464844 1.054687.929687 1.585937 1.390625 3.09375 2.679688 6.269532 5.265625 9.527344 7.75.125.097656.25.191406.371094.285156.132812.097656.265625.199219.398438.300782.191406.144531.378906.285156.570312.429687.140625.101563.277344.207031.417969.3125.183593.136719.367187.273437.550781.410156.152344.109375.300781.21875.449219.328125.179687.132813.355469.261719.535156.394532.15625.113281.3125.226562.46875.339843.175781.128907.355469.257813.53125.386719.152344.109375.304687.21875.457031.328125.179688.125.355469.253906.535156.382813.160157.109374.316407.222656.476563.335937.179687.128906.359375.253906.539063.378906.167968.121094.339843.242188.511718.359375.160156.109375.320313.222656.476563.332032.214843.148437.425781.296874.640625.441406.121094.085937.246094.167968.367187.253906 3.375 2.308594 6.828125 4.519531 10.351563 6.621094.09375.058594.195312.113281.292968.171875.203126.121093.410157.242187.613282.363281.152344.089844.304687.175781.457031.265625.207031.125.417969.246094.625.367187.148437.085938.292969.171876.4375.253907l.65625.375c.136719.078125.273437.15625.40625.234375.238281.136718.472656.265625.710937.402344.121094.070312.246094.140624.371094.210937.242188.132813.488282.269531.730469.40625.117187.066406.238281.132813.355469.195313.261718.144531.523437.289062.785156.433593.101562.054688.203125.109375.300781.164063.316407.171875.636719.34375.953125.515625.042969.019531.082032.042969.125.066406 3.972656 2.132813 8.03125 4.132813 12.160156 5.992187.027344.011719.054688.023438.085938.035157.339844.15625.683594.308593 1.027344.460937.058594.027344.117187.050782.175781.078125.320313.140625.644531.285157.96875.425781.074219.03125.148437.0625.222656.09375.3125.136719.625.273438.941407.40625.074218.03125.144531.0625.21875.09375.320312.136719.640624.273438.964843.40625.0625.027344.125.050782.191407.082032.316406.132812.636718.265625.957031.398437.078125.03125.160156.0625.238281.097657.308594.125.617188.253906.929688.378906.078124.03125.160156.0625.238281.09375.324219.132812.652343.265625.980469.394531.054687.023437.117187.046875.175781.070313.347656.136718.695312.273437 1.046875.410156.03125.011718.0625.023437.097656.035156 5.382812 2.097656 10.882812 3.960938 16.484375 5.582031l.023437.003907c.386719.113281.773438.222656 1.160157.332031.070312.023437.140625.042969.210937.0625.332032.09375.664063.183593 1 .277343.085938.023438.167969.046876.253906.070313.320313.085937.636719.171875.957032.257813.101562.03125.207031.058593.3125.085937.292968.078125.589844.15625.882812.234375.050782.011719.097656.027344.148438.039062 3.941406 1.027344 7.933594 1.941407 11.96875 2.730469.105468.019531.207031.039063.308594.058594.234374.046875.472656.09375.707031.136719.171875.03125.339843.066406.511719.097656.246093.046875.496093.089844.742187.136719.164063.03125.328125.058593.492187.089843.242188.042969.484376.089844.730469.128907.171875.03125.347657.0625.523438.09375.242187.042969.480469.082031.722656.125.175781.027343.351563.058593.527344.085937.230469.039063.460937.078125.695312.113282.183594.03125.367188.0625.554688.089843.234375.039063.46875.078125.707031.113281.175781.027344.347656.054688.523438.082032.238281.035156.476562.074218.71875.109375.183593.027343.363281.054687.550781.082031.222656.03125.453125.066406.679687.097656.132813.019532.265625.039063.402344.058594 4.027344.570312 8.097656 1.019531 12.199219 1.34375v.003906c.105469.007813.210937.015625.3125.023438.191406.011718.378906.027344.570312.042968.230469.015626.460938.03125.691407.046876.179687.015624.363281.027343.542968.039062.246094.015625.496094.035156.742188.050781.167968.011719.332031.023438.5.03125l.75.046875c.183594.011719.363281.019532.542968.03125.242188.011719.488282.023438.730469.039063.171875.007812.34375.015625.519531.027343.25.011719.503907.023438.757813.035157.164063.007812.332031.011719.5.019531.253906.011719.503906.023438.757813.035156.183593.007813.367187.011719.550781.019532.234375.007812.472656.015624.710937.023437.183594.003906.367188.011719.550782.015625.164062.003906.324218.007812.488281.015625v-.003906c1.828125.050781 3.667969.074219 5.507812.074219 2.265625 0 4.519531-.039063 6.765625-.113282.152344-.003906.300782-.011718.453125-.015625.199219-.007812.398438-.011719.597657-.019531.222656-.007812.449218-.019531.679687-.03125.199219-.007812.398437-.015625.597656-.023438.234375-.011718.464844-.023437.699219-.035156.179688-.007812.363281-.019531.542969-.027344.242187-.011718.484375-.023437.722656-.039062.191406-.007812.375-.019531.5625-.03125.234375-.015625.464844-.027344.699219-.042969.1875-.011719.371094-.023437.558594-.035156.242187-.015625.484374-.03125.730468-.046875.175782-.011719.351563-.023438.527344-.039062.242188-.015626.480469-.03125.71875-.050782.183594-.011718.363281-.027344.546875-.042968.238281-.015626.480469-.035157.722656-.054688.175781-.015625.351563-.03125.53125-.046875.105469-.007813.214844-.015625.324219-.023437v-.003907c4.101562-.347656 8.167969-.824219 12.195312-1.421875.125-.019531.25-.039062.378907-.058594.234375-.035156.46875-.070312.707031-.105468.179688-.03125.359375-.058594.542969-.085938.230469-.035156.457031-.070312.6875-.109375.179687-.027343.363281-.058593.546875-.085937.246094-.039063.492187-.082032.738281-.121094.15625-.027344.3125-.054688.46875-.082031.257813-.042969.515625-.085938.773437-.132813.160157-.027344.320313-.054687.480469-.082031.25-.042969.503907-.089844.753907-.132813.160156-.03125.324218-.058593.488281-.089843.253906-.046875.507812-.09375.761719-.140625.152343-.027344.304687-.058594.457031-.085938.265625-.050781.53125-.101562.792969-.152344.148437-.027343.292968-.058593.441406-.085937.265625-.054687.53125-.105469.796875-.160156.085937-.015625.171875-.03125.257812-.050781 4.03125-.8125 8.015625-1.75 11.953125-2.808594.03125-.007813.054688-.011719.082032-.019532.339843-.09375.675781-.183593 1.011718-.277343.070313-.019531.140625-.035157.210938-.054688.359375-.101562.71875-.203125 1.078125-.300781.042969-.011719.082031-.023438.125-.035156 6.425781-1.816406 12.71875-3.949219 18.863281-6.382813.027344-.011719.058594-.023437.089844-.035156.347656-.136719.695312-.277344 1.042968-.417969.054688-.023437.109376-.042968.160157-.0625.335937-.136718.667969-.273437 1.003906-.410156.0625-.027344.125-.050781.183594-.078125.332031-.136719.660156-.269531.988281-.410156.0625-.023438.121094-.050781.183594-.074219.332031-.140625.660156-.277344.992187-.421875.054688-.023437.109375-.042969.164063-.070313.324218-.136718.652344-.277343.976562-.417968.070313-.03125.136719-.0625.207032-.089844.324218-.144531.648437-.28125.96875-.425781.058593-.023438.109374-.050781.167968-.074219.335938-.148438.667969-.296875 1.003906-.449219.050782-.023437.097657-.042969.148438-.066406.355469-.160156.710938-.320313 1.066406-.484375.015625-.007812.03125-.011719.046875-.019531 4.113281-1.882813 8.148438-3.902344 12.101563-6.054688.035156-.015625.066406-.035156.101562-.054687.332032-.179688.660156-.359375.988282-.539063.074218-.039062.144531-.082031.21875-.121093.289062-.160157.578124-.324219.871093-.484376.09375-.054687.1875-.105468.277344-.160156.265625-.148437.527344-.296875.792969-.445312.109375-.0625.21875-.128906.328125-.191406.253906-.140626.503906-.285157.757812-.433594.113281-.066406.222657-.128906.339844-.195313.246094-.140625.488281-.285156.734375-.425781.113281-.070312.230469-.136719.34375-.203125.242188-.144531.480469-.285156.71875-.425781.128906-.074219.253906-.152344.378906-.226563.230469-.132812.457032-.269531.683594-.410156.078125-.042969.15625-.09375.234375-.136719 3.503906-2.121094 6.9375-4.34375 10.296875-6.671875.011719-.007812.027344-.015625.039062-.027343.179688-.125.359376-.25.539063-.375.3125-.21875.621094-.433594.929687-.65625.175782-.121094.347657-.242188.519532-.363282.164062-.117187.328125-.234375.492187-.351562.167969-.121094.335938-.242188.503907-.363282.1875-.132812.375-.269531.558593-.40625.140625-.097656.277344-.199218.414063-.296874.207031-.148438.40625-.296876.609375-.449219.125-.09375.253906-.183594.378906-.277344.191406-.140625.382813-.28125.570313-.421875.144531-.109375.289062-.21875.433593-.324219.183594-.140625.371094-.277343.554688-.421875.136719-.101562.273437-.207031.410156-.308594.1875-.140624.371094-.285156.558594-.425781.140625-.109375.285156-.21875.429687-.328125.105469-.082031.207032-.160156.3125-.242187 3.238282-2.503907 6.402344-5.105469 9.476563-7.796875.605469-.53125 1.207031-1.0625 1.804687-1.601563.003906-.003906.003906-.003906.007813-.007812.242187-.214844.484375-.433594.726562-.652344.058594-.054687.117188-.109375.175781-.164063.214844-.195312.429688-.390624.640626-.585937.09375-.082031.183593-.164063.269531-.246094.199219-.1875.398437-.371093.601562-.554687.097657-.09375.195313-.183594.292969-.277344.199219-.183594.394531-.371094.59375-.554688.097656-.089843.199219-.183593.296875-.277343.195313-.1875.394531-.371094.585937-.558594.097657-.09375.199219-.1875.296876-.28125.191406-.183594.382812-.367187.574218-.550781.105469-.101563.207032-.199219.308594-.300782.117188-.109374.226562-.21875.339844-.328124 2.9375-2.851563 5.785156-5.796876 8.539062-8.828126.507813-.558593 1.015625-1.125 1.519532-1.691406.023437-.027344.050781-.058594.074218-.085937.207032-.234375.414063-.464844.617188-.699219.066406-.074219.128906-.144531.191406-.21875.179688-.203125.363281-.414062.542969-.621094.09375-.109375.1875-.214844.28125-.324218.160156-.183594.320312-.371094.480469-.554688.109374-.128906.21875-.257812.328124-.382812.152344-.183594.308594-.363282.464844-.542969.105469-.128907.210938-.253907.320313-.378907.164062-.195312.324219-.386718.488281-.582031.097656-.117187.195312-.234375.292969-.351562.160156-.1875.316406-.378907.472656-.566407.109375-.132812.214844-.265624.328125-.398437.09375-.117187.191406-.230469.285156-.34375h-.003906c2.59375-3.167969 5.089844-6.414063 7.484375-9.742187.054687-.078126.113281-.15625.171875-.238282.179688-.25.359375-.503906.539062-.753906.097657-.140625.195313-.28125.296876-.417969.136718-.195312.269531-.386719.40625-.578125.109374-.160156.21875-.316406.332031-.476562.125-.179688.253906-.363282.378906-.542969.109375-.15625.214844-.316406.324219-.472656.125-.183594.25-.363281.375-.550781.105468-.15625.210937-.308594.320312-.464844.125-.191406.253906-.378906.378906-.566406.101563-.152344.207032-.304688.304688-.457032.128906-.191406.257812-.382812.386719-.578125.101562-.152343.203125-.304687.304687-.457031.125-.191406.25-.386719.378906-.578125.097657-.152344.199219-.304687.296876-.457031.128906-.195313.253906-.390625.378906-.585938.0625-.097656.125-.195312.191406-.292968 2.671875-4.148438 5.191406-8.402344 7.554688-12.757813.019531-.035156.035156-.070313.054687-.105469.179687-.328125.359375-.660156.535156-.988281.035157-.074219.074219-.144531.113281-.21875.160157-.296875.316407-.597656.476563-.898437.039063-.078126.082031-.152344.121094-.234376.152343-.292968.308593-.582031.457031-.875.042969-.085937.089844-.171874.132812-.257812.152344-.292969.300782-.585938.453126-.882812.039062-.078126.078124-.152344.117187-.230469.144531-.289063.292969-.578125.4375-.867188.050781-.097656.097656-.195312.144531-.292969.140625-.28125.28125-.558593.417969-.839843.023437-.054688.054687-.109375.078125-.160157 1.808594-3.671874 3.503906-7.402343 5.085938-11.199218.007812-.015625.015624-.03125.019531-.046875.972656-2.335938 1.902343-4.695313 2.789062-7.074219.011719-.039062.027344-.078125.042969-.117188.132812-.359374.265625-.714843.394531-1.074218.015625-.042969.03125-.089844.046875-.132813.128906-.359375.261719-.71875.386719-1.074219.007813-.015624.011719-.03125.019531-.042968 1.367188-3.847656 2.625-7.742188 3.757813-11.695313.019531-.0625.035156-.128906.054687-.191406.078125-.277344.15625-.554687.234375-.832031.035157-.121094.070313-.242188.101563-.359375.078125-.285157.15625-.566407.234375-.851563.035156-.125.070312-.246094.101562-.371094.078125-.285156.15625-.574218.234375-.859374.03125-.113282.058594-.226563.089844-.339844.082031-.304688.160156-.609375.238281-.914063.027344-.101562.054688-.199219.078125-.300781.078125-.292969.152344-.589844.226563-.882812.03125-.121094.0625-.238282.09375-.359376.074219-.296874.148437-.59375.21875-.886718.027343-.109375.054687-.21875.078125-.324219.082031-.328125.160156-.652344.238281-.980469.019531-.082031.039063-.160156.058594-.242187.082031-.347657.164062-.703125.246093-1.050781.011719-.050782.023438-.105469.039063-.160157.917969-3.96875 1.71875-7.984375 2.394531-12.042969 0-.007812 0-.015624.003906-.023437.050782-.300781.097657-.605469.148438-.90625.007812-.042969.011719-.085937.019531-.128906.011719-.074219.027344-.148438.039063-.222657.027344-.1875.058594-.375.089844-.566406.003906-.039062.011718-.074218.015624-.113281.015626-.101563.03125-.207031.050782-.3125.015625-.085937.027344-.175781.039062-.261719.125-.804687.242188-1.609375.355469-2.417968.03125-.210938.058594-.425782.085937-.636719.015626-.101563.03125-.203125.042969-.304688.019531-.128906.035157-.257812.050781-.386719.019532-.121093.035157-.242187.050782-.367187.011718-.113281.027344-.222656.042968-.335937.023438-.179688.046876-.359376.070313-.539063.023437-.195313.046875-.390625.070313-.585937.03125-.226563.058593-.453126.085937-.683594.023437-.179688.042969-.359375.0625-.535156.015625-.144532.035156-.285157.050781-.425782.011719-.097656.023438-.195312.035156-.289062.003907-.03125.003907-.058594.007813-.09375.007813-.074219.015625-.152344.027344-.226563.003906-.160156.023437-.339843.042969-.515625zm0 0"/><path d="m180.554688 53.382812c2.425781-.652343 4.871093-1.257812 7.332031-1.8125h.003906c4.890625-1.105468 9.855469-2.015624 14.882813-2.726562.078124-.015625.152343-.023438.230468-.035156.441406-.0625.878906-.121094 1.320313-.179688.039062-.003906.078125-.007812.117187-.015625.980469-.128906 1.960938-.25 2.945313-.367187.074219-.007813.148437-.015625.222656-.023438.40625-.046875.8125-.09375 1.21875-.136718.101563-.011719.199219-.023438.300781-.03125.429688-.046876.859375-.089844 1.292969-.132813.046875-.007813.097656-.011719.144531-.015625 4.480469-.445312 9.007813-.730469 13.578125-.851562.195313-.007813.390625-.011719.582031-.015626.328126-.007812.652344-.015624.980469-.019531.175781-.003906.347657-.007812.523438-.011719.371093-.003906.742187-.011718 1.117187-.015624.128906 0 .257813-.003907.386719-.003907.507813-.003906 1.015625-.003906 1.523437-.003906.472657 0 .949219 0 1.421876.003906.097656 0 .191406.003907.289062.003907.46875.003906.9375.011718 1.40625.019531h.140625c4.660156.082031 9.28125.332031 13.851563.746093.082031.007813.160156.011719.238281.019532.40625.039062.8125.078125 1.21875.117187.101562.007813.203125.019531.304687.03125.421875.039063.84375.085938 1.265625.128907.054688.003906.113281.011718.167969.015624.980469.109376 1.957031.21875 2.929688.339844.078124.011719.160156.023438.238281.03125.417969.050782.835937.105469 1.253906.164063.070313.007812.140625.015625.210937.027343 8.097657 1.078126 16.027344 2.671876 23.765626 4.75l2.59375-9.65625c-.835938-.222656-1.675782-.445312-2.519532-.660156-.171875-.042968-.347656-.089844-.523437-.132812-.023438-.003906-.050781-.011719-.074219-.019532-.492188-.121093-.988281-.242187-1.484375-.363281-.011719-.003906-.019531-.007812-.03125-.007812-1.53125-.371094-3.070313-.726563-4.613281-1.0625-.03125-.003907-.0625-.011719-.09375-.019531-.492188-.105469-.984375-.210938-1.476563-.3125-.019531-.003907-.039062-.007813-.058593-.011719-.542969-.113281-1.082032-.226563-1.625-.332031-3.996094-.796876-8.035157-1.472657-12.109376-2.027344-.136718-.019532-.273437-.039063-.410156-.054688-.085937-.011718-.175781-.023437-.265625-.035156-.433593-.058594-.867187-.113281-1.300781-.167969-.082031-.007812-.160156-.019531-.242188-.03125-1.027343-.125-2.054687-.246093-3.085937-.355469-.0625-.007812-.121094-.011718-.183594-.019531-.441406-.050781-.890625-.09375-1.335937-.140625-.101563-.007812-.207032-.019531-.3125-.027344-.441406-.046874-.878906-.085937-1.320313-.128906-.066406-.003906-.132812-.011718-.203125-.015625-.503906-.046875-1.007812-.089843-1.511718-.132812-4.054688-.335938-8.140626-.546875-12.257813-.636719-.261719-.007812-.523437-.011719-.78125-.015625-.074219 0-.140625 0-.214844-.003906-.484375-.007813-.96875-.015625-1.457031-.019531-.105469 0-.214844 0-.324219 0-.496093-.003907-.992187-.007813-1.484375-.007813-.53125 0-1.0625.003906-1.59375.007813-.148437 0-.300781.003906-.453125.003906-.378906.007812-.753906.011718-1.132812.015625-.191407.003906-.386719.007812-.585938.011719-.328125.003906-.65625.011718-.984375.019531-.210937.003906-.425781.007812-.636718.015625-.191407.003906-.390626.007812-.582032.015625-4.117187.125-8.203125.371093-12.253906.742187-.476562.046875-.953125.089844-1.429688.136719-.082031.007813-.164062.015625-.246093.027344-.421875.042969-.847657.085937-1.269531.132812-.121094.011719-.234376.023438-.355469.035157-.40625.046874-.816407.089843-1.222657.136718-.101562.011719-.203124.023438-.304687.035156-1.015625.117188-2.035156.246094-3.050781.378907-.070313.011719-.140625.019531-.210938.027343-.441406.058594-.882812.121094-1.320312.179688-.085938.015625-.175782.027344-.261719.039062-.164063.023438-.324219.042969-.488281.070313-4.074219.589844-8.105469 1.296875-12.09375 2.128906-1.011719.214844-2.019532.429688-3.023438.660157-.046875.007812-.097656.019531-.140625.03125-.496093.113281-.988281.226562-1.484375.339843-1.539062.359375-3.074218.738281-4.597656 1.136719-.027344.003906-.054688.011719-.082031.019531-.210938.054688-.421875.109375-.632813.164063-.285156.078125-.574218.152344-.863281.230468zm0 0"/></g><path d="m58.785156 199.15625c-6.589844 0-11.953125-5.359375-11.953125-11.949219 0-5.5-4.460937-9.960937-9.960937-9.960937s-9.960938 4.460937-9.960938 9.960937c0 6.589844-5.359375 11.949219-11.949218 11.949219-5.5 0-9.960938 4.460938-9.960938 9.960938s4.460938 9.960937 9.960938 9.960937c6.589843 0 11.949218 5.363281 11.949218 11.953125 0 5.5 4.460938 9.957031 9.960938 9.957031s9.960937-4.457031 9.960937-9.957031c0-6.59375 5.363281-11.953125 11.953125-11.953125 5.5 0 9.957032-4.460937 9.957032-9.960937s-4.457032-9.960938-9.957032-9.960938zm0 0" fill="#ffcc34"/><path d="m69.363281 198.539062c-2.691406-2.699218-6.464843-4.382812-10.578125-4.382812-1.925781 0-3.636718-.769531-4.914062-2.039062-1.269532-1.277344-2.035156-2.984376-2.039063-4.910157.003907-4.117187-1.683593-7.886719-4.382812-10.578125-2.691407-2.699218-6.460938-4.386718-10.578125-4.382812-4.113282-.003906-7.886719 1.683594-10.578125 4.382812-2.699219 2.691406-4.382813 6.460938-4.382813 10.578125 0 1.925781-.769531 3.632813-2.039062 4.910157-1.273438 1.269531-2.984375 2.039062-4.910156 2.039062-4.117188 0-7.886719 1.683594-10.578126 4.382812-2.699218 2.691407-4.38671825 6.464844-4.382812 10.578126-.00390625 4.117187 1.683594 7.886718 4.382812 10.578124 2.691407 2.699219 6.460938 4.382813 10.578126 4.382813 1.925781 0 3.632812.769531 4.910156 2.039063 1.269531 1.277343 2.039062 2.988281 2.039062 4.914062 0 4.113281 1.683594 7.882812 4.382813 10.578125 2.691406 2.699219 6.464843 4.382813 10.578125 4.378906 4.117187.003907 7.886718-1.679687 10.578125-4.378906 2.699219-2.695313 4.386719-6.464844 4.382812-10.578125.003907-1.925781.769531-3.636719 2.039063-4.914062 1.277344-1.269532 2.988281-2.039063 4.914062-2.039063 4.113282 0 7.886719-1.683594 10.578125-4.382813 2.699219-2.691406 4.382813-6.460937 4.378907-10.578124.003906-4.113282-1.679688-7.886719-4.378907-10.578126zm-7.070312 14.085938c-.914063.90625-2.121094 1.449219-3.507813 1.453125-4.664062-.003906-8.929687 1.910156-11.984375 4.96875-3.058593 3.050781-4.972656 7.316406-4.964843 11.984375-.003907 1.382812-.550782 2.59375-1.457032 3.503906-.914062.90625-2.121094 1.449219-3.503906 1.453125-1.386719 0-2.59375-.546875-3.507812-1.453125-.90625-.914062-1.449219-2.121094-1.453126-3.503906 0-4.667969-1.910156-8.933594-4.96875-11.984375-3.050781-3.058594-7.316406-4.972656-11.984374-4.96875-1.382813-.003906-2.59375-.546875-3.507813-1.453125-.90625-.914062-1.449219-2.121094-1.449219-3.507812 0-1.382813.546875-2.59375 1.449219-3.507813.914063-.90625 2.121094-1.449219 3.507813-1.453125 4.667968 0 8.933593-1.910156 11.984374-4.96875 3.058594-3.050781 4.96875-7.316406 4.96875-11.984375 0-1.382813.546876-2.59375 1.453126-3.503906.914062-.90625 2.121093-1.453125 3.507812-1.457031 1.382812.003906 2.59375.550781 3.503906 1.457031.90625.914062 1.449219 2.121093 1.457032 3.503906-.003907 4.667969 1.90625 8.933594 4.964843 11.984375 3.054688 3.058594 7.320313 4.972656 11.984375 4.96875 1.386719 0 2.59375.546875 3.507813 1.453125.90625.914063 1.449219 2.121094 1.453125 3.507813-.003906 1.386718-.546875 2.59375-1.453125 3.507812zm0 0" fill="#122436"/><path d="m443.554688 199.15625c-6.589844 0-11.953126-5.359375-11.953126-11.949219 0-5.5-4.457031-9.960937-9.957031-9.960937-5.503906 0-9.960937 4.460937-9.960937 9.960937 0 6.589844-5.363282 11.949219-11.953125 11.949219-5.5 0-9.957031 4.460938-9.957031 9.960938s4.457031 9.960937 9.957031 9.960937c6.589843 0 11.953125 5.363281 11.953125 11.953125 0 5.5 4.457031 9.957031 9.960937 9.957031 5.5 0 9.957031-4.457031 9.957031-9.957031 0-6.59375 5.363282-11.953125 11.953126-11.953125 5.5 0 9.960937-4.460937 9.960937-9.960937s-4.460937-9.960938-9.960937-9.960938zm0 0" fill="#ffcc34"/><path d="m454.132812 198.539062c-2.691406-2.699218-6.460937-4.382812-10.578124-4.382812-1.925782 0-3.632813-.769531-4.910157-2.039062-1.269531-1.277344-2.039062-2.984376-2.039062-4.910157 0-4.117187-1.683594-7.886719-4.382813-10.578125-2.691406-2.699218-6.460937-4.386718-10.578125-4.382812-4.117187-.003906-7.886719 1.683594-10.582031 4.382812-2.699219 2.691406-4.382812 6.460938-4.378906 10.578125-.003906 1.925781-.773438 3.632813-2.042969 4.910157-1.277344 1.269531-2.984375 2.039062-4.910156 2.039062-4.117188 0-7.886719 1.683594-10.578125 4.382812-2.699219 2.691407-4.382813 6.464844-4.382813 10.578126 0 4.117187 1.683594 7.886718 4.382813 10.578124 2.691406 2.699219 6.460937 4.382813 10.578125 4.382813 1.925781 0 3.636719.769531 4.910156 2.039063 1.269531 1.277343 2.039063 2.988281 2.042969 4.914062-.003906 4.113281 1.679687 7.882812 4.378906 10.578125 2.695312 2.699219 6.464844 4.382813 10.582031 4.378906 4.117188.003907 7.886719-1.679687 10.578125-4.378906 2.699219-2.695313 4.382813-6.464844 4.382813-10.578125 0-1.925781.769531-3.636719 2.039062-4.914062 1.277344-1.269532 2.984375-2.039063 4.910157-2.039063 4.117187 0 7.886718-1.683594 10.578124-4.382813 2.703126-2.691406 4.386719-6.460937 4.382813-10.578124.003906-4.113282-1.679687-7.886719-4.382813-10.578126zm-7.070312 14.085938c-.914062.90625-2.121094 1.449219-3.507812 1.453125-4.664063 0-8.929688 1.910156-11.984376 4.96875-3.054687 3.054687-4.96875 7.320313-4.964843 11.984375-.003907 1.382812-.550781 2.59375-1.457031 3.507812-.914063.90625-2.121094 1.449219-3.503907 1.449219-1.386719 0-2.59375-.546875-3.507812-1.453125-.90625-.914062-1.449219-2.121094-1.453125-3.503906.003906-4.667969-1.910156-8.933594-4.96875-11.984375-3.050782-3.058594-7.316406-4.972656-11.984375-4.96875-1.382813-.003906-2.589844-.546875-3.503907-1.453125-.90625-.914062-1.449218-2.121094-1.453124-3.507812 0-1.386719.546874-2.59375 1.453124-3.507813.914063-.90625 2.121094-1.453125 3.503907-1.453125 4.667969 0 8.933593-1.910156 11.984375-4.96875 3.058594-3.050781 4.972656-7.316406 4.96875-11.984375.003906-1.382813.546875-2.59375 1.453125-3.503906.914062-.90625 2.121093-1.453125 3.507812-1.457031 1.382813.003906 2.589844.550781 3.503907 1.453124.90625.914063 1.453124 2.121094 1.457031 3.507813-.003907 4.667969 1.910156 8.933594 4.964843 11.984375 3.054688 3.058594 7.320313 4.972656 11.984376 4.96875 1.386718 0 2.59375.546875 3.507812 1.453125.90625.914063 1.449219 2.121094 1.453125 3.507813 0 1.386718-.546875 2.59375-1.453125 3.507812zm0 0" fill="#122436"/><path d="m251.171875 27.171875c-6.59375 0-11.953125-5.363281-11.953125-11.953125 0-5.5-4.460938-9.960938-9.960938-9.960938s-9.960937 4.460938-9.960937 9.960938c0 6.589844-5.359375 11.953125-11.949219 11.953125-5.5 0-9.960937 4.457031-9.960937 9.957031s4.460937 9.960938 9.960937 9.960938c6.589844 0 11.949219 5.363281 11.949219 11.953125 0 5.5 4.460937 9.960937 9.960937 9.960937s9.960938-4.460937 9.960938-9.960937c0-6.589844 5.359375-11.953125 11.953125-11.953125 5.5 0 9.957031-4.457032 9.957031-9.960938 0-5.5-4.457031-9.957031-9.957031-9.957031zm0 0" fill="#ffcc34"/><path d="m261.746094 26.550781c-2.691406-2.699219-6.460938-4.382812-10.574219-4.378906-1.925781-.003906-3.636719-.773437-4.914063-2.042969-1.269531-1.277344-2.039062-2.984375-2.039062-4.910156 0-4.117188-1.683594-7.890625-4.382812-10.578125-2.691407-2.699219-6.460938-4.382813-10.578126-4.382813-4.117187 0-7.886718 1.683594-10.578124 4.382813-2.699219 2.691406-4.382813 6.460937-4.382813 10.578125 0 1.925781-.769531 3.632812-2.039063 4.910156-1.277343 1.269532-2.984374 2.039063-4.910156 2.042969-4.117187-.003906-7.886718 1.679687-10.578125 4.378906-2.703125 2.691407-4.386719 6.464844-4.382812 10.578125-.003907 4.117188 1.679687 7.890625 4.382812 10.578125 2.691407 2.699219 6.460938 4.386719 10.578125 4.382813 1.925782.003906 3.632813.769531 4.910156 2.039062 1.269532 1.277344 2.039063 2.988282 2.039063 4.914063 0 4.113281 1.683594 7.886719 4.382813 10.578125 2.691406 2.699218 6.460937 4.382812 10.578124 4.382812 4.113282 0 7.886719-1.683594 10.578126-4.382812 2.699218-2.691406 4.386718-6.460938 4.382812-10.578125 0-1.925781.769531-3.632813 2.039062-4.910157 1.277344-1.269531 2.984376-2.039062 4.914063-2.039062 4.113281 0 7.882813-1.683594 10.574219-4.382812 2.703125-2.691407 4.386718-6.464844 4.382812-10.578126.003906-4.117187-1.679687-7.890624-4.382812-10.582031zm-7.066406 14.085938c-.914063.90625-2.125 1.453125-3.507813 1.457031-4.667969-.003906-8.933594 1.910156-11.984375 4.964844-3.058594 3.054687-4.96875 7.320312-4.96875 11.984375 0 1.386719-.546875 2.59375-1.453125 3.507812-.914063.90625-2.121094 1.449219-3.507813 1.453125-1.386718 0-2.59375-.546875-3.507812-1.453125-.90625-.914062-1.449219-2.121093-1.453125-3.507812 0-4.667969-1.910156-8.933594-4.96875-11.984375-3.050781-3.058594-7.316406-4.972656-11.984375-4.96875-1.386719 0-2.59375-.546875-3.507812-1.453125-.90625-.914063-1.449219-2.121094-1.453126-3.507813 0-1.382812.546876-2.59375 1.453126-3.503906.914062-.90625 2.121093-1.449219 3.507812-1.453125 4.667969 0 8.933594-1.910156 11.984375-4.96875 3.058594-3.054687 4.972656-7.320313 4.96875-11.984375 0-1.382812.546875-2.59375 1.453125-3.507812.914062-.90625 2.121094-1.449219 3.507812-1.453126 1.382813.003907 2.59375.546876 3.507813 1.453126.90625.914062 1.449219 2.125 1.453125 3.507812 0 4.664062 1.910156 8.929688 4.96875 11.984375 3.050781 3.058594 7.320312 4.972656 11.984375 4.96875 1.382813 0 2.59375.546875 3.507813 1.453125.90625.914062 1.449218 2.121094 1.453124 3.503906-.003906 1.386719-.546874 2.59375-1.453124 3.507813zm0 0" fill="#122436"/><path d="m190.089844 156.628906c0 12.097656 10.484375 21.75 22.863281 20.367188 9.027344-1.007813 16.496094-8.121094 17.882813-17.101563 1.441406-9.304687-3.394532-17.648437-10.910157-21.503906v-38.097656c0-5.152344-4.179687-9.332031-9.335937-9.332031-5.152344 0-9.332032 4.175781-9.332032 9.332031v38.097656c-6.625 3.398437-11.167968 10.28125-11.167968 18.238281zm0 0" fill="#fff"/><path d="m201.257812 105.367188h18.667969v10h-18.667969zm0 0" fill="#4ea3da"/><path d="m201.257812 124.921875h18.667969v10h-18.667969zm0 0" fill="#4ea3da"/><path d="m252.308594 247.238281c-1.824219 0-3.601563.191407-5.332032.507813-6.671874-13.074219-20.234374-22.042969-35.917968-22.042969-3.097656 0-6.105469.382813-9.003906 1.042969-1.519532-20.890625-18.90625-37.378906-40.183594-37.378906-20.929688 0-38.128906 15.941406-40.132813 36.34375l-.203125-.007813c-22.273437 0-40.332031 18.058594-40.332031 40.332031 0 22.277344 18.058594 40.335938 40.332031 40.335938h130.769532c16.328124 0 29.5625-13.238282 29.5625-29.566406.007812-16.328126-13.230469-29.566407-29.558594-29.566407zm0 0" fill="#4ea3da"/><path d="m121.539062 245.703125.203126.007813c2.003906-20.402344 19.203124-36.34375 40.132812-36.34375 21.277344 0 38.664062 16.488281 40.183594 37.378906 2.898437-.660156 5.902344-1.042969 9-1.042969 15.683594 0 29.246094 8.972656 35.917968 22.042969 1.734376-.316406 3.511719-.507813 5.332032-.507813 12.8125 0 23.691406 8.167969 27.792968 19.566407 1.125-3.128907 1.773438-6.484376 1.773438-10 0-16.328126-13.238281-29.566407-29.566406-29.566407-1.820313 0-3.597656.191407-5.332032.507813-6.671874-13.074219-20.230468-22.042969-35.917968-22.042969-3.097656 0-6.101563.382813-9 1.042969-1.519532-20.890625-18.910156-37.378906-40.183594-37.378906-20.929688 0-38.128906 15.941406-40.132812 36.34375l-.203126-.007813c-22.273437 0-40.332031 18.058594-40.332031 40.332031 0 3.457032.480469 6.796875 1.300781 10 4.453126-17.429687 20.214844-30.332031 39.03125-30.332031zm0 0" fill="#fff"/><path d="m252.308594 242.238281c-.894532 0-1.769532.039063-2.632813.109375-3.671875-5.980468-8.683593-11.039062-14.625-14.761718-6.945312-4.359376-15.191406-6.886719-23.992187-6.886719-1.609375 0-3.1875.09375-4.742188.261719-1.863281-9.539063-6.714844-18.015626-13.527344-24.390626-8.074218-7.558593-18.976562-12.203124-30.917968-12.203124-11.746094 0-22.492188 4.488281-30.53125 11.828124-7.019532 6.398438-12.027344 14.992188-13.941406 24.691407-23.097657 2.089843-41.191407 21.5-41.195313 45.148437.003906 25.035156 20.292969 45.328125 45.332031 45.332032h130.769532c19.089843-.003907 34.558593-15.472657 34.5625-34.566407.003906-19.085937-15.46875-34.558593-34.558594-34.5625zm17.371094 51.9375c-4.460938 4.453125-10.570313 7.191407-17.371094 7.191407h-130.769532c-9.769531 0-18.574218-3.945313-24.984374-10.347657-6.402344-6.410156-10.34375-15.210937-10.347657-24.984375 0-9.769531 3.945313-18.574218 10.347657-24.984375 6.386718-6.375 15.140624-10.3125 24.867187-10.347656l.054687.003906 4.773438.253907.46875-4.757813c.878906-8.933594 5.074219-16.882813 11.359375-22.617187 6.292969-5.730469 14.613281-9.214844 23.796875-9.214844 9.335938.003906 17.765625 3.601562 24.085938 9.503906 6.3125 5.910156 10.445312 14.082031 11.109374 23.234375l.421876 5.808594 5.679687-1.296875c2.574219-.585938 5.203125-.917969 7.890625-.917969 6.882812 0 13.261719 1.960937 18.679688 5.355469 5.417968 3.394531 9.859374 8.234375 12.785156 13.960937l1.691406 3.316407 3.660156-.671876c1.484375-.269531 2.957032-.421874 4.433594-.421874 6.800781 0 12.90625 2.742187 17.371094 7.195312 4.453125 4.457031 7.191406 10.570312 7.191406 17.367188-.003906 6.800781-2.742188 12.90625-7.195312 17.371093zm0 0" fill="#122436"/><path d="m349.074219 203.867188c0 24.300781-19.699219 44-44 44s-44-19.699219-44-44c0-24.300782 19.699219-44 44-44s44 19.699218 44 44zm0 0" fill="#ffcc34"/><path d="m305.074219 179.867188c20.859375 0 38.3125 14.519531 42.84375 34 .746093-3.214844 1.15625-6.558594 1.15625-10 0-24.300782-19.699219-44-44-44s-44 19.699218-44 44c0 3.441406.40625 6.785156 1.152343 10 4.53125-19.480469 21.988282-34 42.847657-34zm0 0" fill="#fff"/><path d="m305.308594 154.867188c-27.0625.003906-48.996094 21.9375-49 49 .003906 27.066406 21.9375 48.996093 49 49 27.0625 0 48.996094-21.933594 49-49-.003906-27.0625-21.9375-48.996094-49-49zm27.578125 76.578124c-7.074219 7.066407-16.792969 11.421876-27.578125 11.421876s-20.503906-4.355469-27.578125-11.421876c-7.066407-7.074218-11.421875-16.792968-11.421875-27.578124 0-10.785157 4.355468-20.503907 11.421875-27.578126 7.074219-7.066406 16.792969-11.417968 27.578125-11.421874 10.785156 0 20.503906 4.355468 27.578125 11.421874 7.066406 7.074219 11.417969 16.792969 11.421875 27.578126-.003906 10.785156-4.355469 20.503906-11.421875 27.578124zm0 0" fill="#122436"/><path d="m300.308594 131.867188h10v14.667968h-10zm0 0" fill="#122436"/><path d="m300.308594 261.203125h10v14.664063h-10zm0 0" fill="#122436"/><path d="m362.640625 198.867188h14.667969v10h-14.667969zm0 0" fill="#122436"/><path d="m233.308594 198.867188h14.667968v10h-14.667968zm0 0" fill="#122436"/><path d="m342.308594 159.789062 10.371094-10.371093 7.070312 7.070312-10.371094 10.371094zm0 0" fill="#122436"/><path d="m342.3125 247.945312 7.070312-7.070312 10.371094 10.371094-7.074218 7.070312zm0 0" fill="#122436"/><path d="m250.863281 156.503906 7.070313-7.070312 10.371094 10.371094-7.074219 7.070312zm0 0" fill="#122436"/><path d="m172.199219 369.117188c0 7.734374-6.265625 14-14 14-7.730469 0-14-6.265626-14-14 0-7.730469 14-37.164063 14-37.164063s14 29.433594 14 37.164063zm0 0" fill="#4ea3da"/><path d="m149.402344 380.003906c3.984375-9.933594 8.796875-20.050781 8.796875-20.050781s4.8125 10.121094 8.792969 20.050781c3.171874-2.566406 5.207031-6.488281 5.207031-10.886718 0-7.730469-14-37.164063-14-37.164063s-14 29.433594-14 37.164063c0 4.398437 2.03125 8.320312 5.203125 10.886718zm0 0" fill="#fff"/><path d="m176.449219 364.097656c-.757813-3.050781-1.984375-6.605468-3.402344-10.347656-4.253906-11.175781-10.308594-23.882812-10.332031-23.949219l-4.515625-9.492187-4.515625 9.492187c-.019532.042969-3.542969 7.445313-7.09375 15.894531-1.777344 4.230469-3.5625 8.710938-4.9375 12.738282-.6875 2.015625-1.273438 3.914062-1.707032 5.664062-.425781 1.765625-.734374 3.316406-.746093 5.019532 0 10.496093 8.503906 18.996093 19 19 5.230469 0 10.011719-2.136719 13.433593-5.566407 3.429688-3.421875 5.566407-8.203125 5.566407-13.433593-.011719-1.699219-.320313-3.253907-.75-5.019532zm-11.886719 11.382813c-1.640625 1.636719-3.863281 2.636719-6.363281 2.636719s-4.71875-1-6.363281-2.636719c-1.636719-1.640625-2.632813-3.859375-2.636719-6.363281-.011719-.234376.117187-1.292969.453125-2.613282.582031-2.355468 1.703125-5.675781 3.046875-9.199218 1.679687-4.425782 3.710937-9.214844 5.5-13.285157.972656 2.210938 2.015625 4.632813 3.035156 7.097657 1.609375 3.878906 3.160156 7.867187 4.277344 11.226562.554687 1.671875 1.003906 3.191406 1.292969 4.40625.296874 1.199219.40625 2.148438.394531 2.367188-.003907 2.503906-1 4.722656-2.636719 6.363281zm0 0" fill="#122436"/><path d="m216.027344 324.558594c0 7.734375-6.265625 14-14 14-7.730469 0-14-6.265625-14-14 0-7.730469 14-37.164063 14-37.164063s14 29.433594 14 37.164063zm0 0" fill="#4ea3da"/><path d="m193.234375 335.445312c3.980469-9.929687 8.792969-20.050781 8.792969-20.050781s4.8125 10.121094 8.792968 20.050781c3.171876-2.566406 5.207032-6.488281 5.207032-10.886718 0-7.730469-14-37.164063-14-37.164063s-14 29.433594-14 37.164063c0 4.398437 2.03125 8.320312 5.207031 10.886718zm0 0" fill="#fff"/><path d="m220.277344 319.539062c-.757813-3.050781-1.984375-6.605468-3.402344-10.347656-4.253906-11.175781-10.308594-23.882812-10.332031-23.945312l-4.515625-9.492188-4.515625 9.492188c-.019531.042968-3.542969 7.445312-7.09375 15.894531-1.777344 4.230469-3.5625 8.710937-4.9375 12.734375-.6875 2.015625-1.269531 3.914062-1.703125 5.664062-.429688 1.765626-.734375 3.320313-.75 5.019532 0 5.230468 2.132812 10.011718 5.566406 13.4375 3.421875 3.429687 8.203125 5.566406 13.433594 5.5625 10.496094 0 18.996094-8.503906 19-19-.011719-1.699219-.320313-3.253906-.75-5.019532zm-11.886719 11.386719c-1.644531 1.632813-3.859375 2.632813-6.363281 2.632813-2.5 0-4.71875-1-6.363282-2.632813-1.636718-1.644531-2.632812-3.863281-2.636718-6.367187-.011719-.234375.117187-1.289063.457031-2.613282.578125-2.351562 1.703125-5.671874 3.042969-9.199218 1.683594-4.425782 3.710937-9.214844 5.503906-13.285156.972656 2.210937 2.011719 4.636718 3.035156 7.097656 1.605469 3.878906 3.15625 7.871094 4.273438 11.226562.558594 1.671875 1.007812 3.191406 1.296875 4.40625.296875 1.199219.40625 2.152344.394531 2.367188-.007812 2.5-1.003906 4.722656-2.640625 6.367187zm0 0" fill="#122436"/><path d="m232.230469 143.148438c-1.882813-3.011719-4.375-5.597657-7.304688-7.59375v-35.261719c.003907-3.941407-1.613281-7.558594-4.199219-10.136719-2.578124-2.585938-6.191406-4.199219-10.132812-4.195312-3.945312-.003907-7.558594 1.609374-10.136719 4.195312-2.585937 2.578125-4.199219 6.195312-4.195312 10.136719v35.265625c-2.933594 1.992187-5.421875 4.578125-7.308594 7.589844-2.441406 3.902343-3.859375 8.546874-3.859375 13.480468 0 7.023438 2.863281 13.429688 7.46875 18.03125 4.597656 4.605469 11.007812 7.46875 18.035156 7.46875.960938 0 1.933594-.054687 2.914063-.164062 5.660156-.632813 10.78125-3.167969 14.707031-6.914063 3.921875-3.746093 6.691406-8.75 7.566406-14.390625.207032-1.355468.3125-2.703125.3125-4.03125-.003906-4.933594-1.421875-9.578125-3.867187-13.480468zm-6.335938 15.984374c-.511719 3.339844-2.175781 6.378907-4.589843 8.683594-2.414063 2.308594-5.539063 3.835938-8.90625 4.210938-.613282.066406-1.214844.097656-1.804688.101562-4.296875-.003906-8.140625-1.726562-10.960938-4.539062-2.816406-2.820313-4.539062-6.664063-4.539062-10.960938 0-3.023437.855469-5.800781 2.335938-8.175781 1.484374-2.375 3.605468-4.328125 6.109374-5.613281l2.71875-1.394532v-41.152343c.003907-1.210938.476563-2.261719 1.269532-3.0625.800781-.792969 1.851562-1.265625 3.066406-1.269531 1.210938 0 2.261719.476562 3.0625 1.269531.792969.800781 1.265625 1.851562 1.269531 3.0625v41.152343l2.71875 1.394532c2.503907 1.285156 4.625 3.234375 6.109375 5.613281 1.484375 2.375 2.335938 5.152344 2.339844 8.175781-.003906.816406-.066406 1.648438-.199219 2.503906zm0 0" fill="#122436"/><path d="m97.539062 160.1875 8.804688 4.742188c1.527344-2.839844 3.152344-5.621094 4.867188-8.335938l-8.453126-5.339844c-1.839843 2.910156-3.578124 5.886719-5.21875 8.933594zm0 0" fill="#122436"/><path d="m84.65625 192.839844c-.875 3.320312-1.636719 6.6875-2.285156 10.09375l9.824218 1.863281c.605469-3.175781 1.316407-6.316406 2.128907-9.410156zm0 0" fill="#122436"/><path d="m88.316406 180.976562 9.421875 3.34375c1.082031-3.042968 2.265625-6.035156 3.542969-8.976562l-9.167969-3.992188c-1.375 3.152344-2.640625 6.363282-3.796875 9.625zm0 0" fill="#122436"/><path d="m113.777344 136.019531c-1.355469 1.644531-2.675782 3.320313-3.964844 5.023438l7.984375 6.023437c1.199219-1.589844 2.433594-3.15625 3.699219-4.691406.78125-.949219 1.570312-1.886719 2.378906-2.8125l-7.550781-6.554688c-.863281.988282-1.710938 1.996094-2.546875 3.011719zm0 0" fill="#122436"/><path d="m150.871094 103.644531c-2.9375 1.8125-5.808594 3.726563-8.609375 5.730469l5.824219 8.128906c2.613281-1.871094 5.292968-3.65625 8.035156-5.347656zm0 0" fill="#122436"/><path d="m124.839844 123.980469 6.980468 7.15625c2.304688-2.25 4.6875-4.417969 7.136719-6.503907l-6.476562-7.617187c-2.625 2.234375-5.175781 4.554687-7.640625 6.964844zm0 0" fill="#122436"/><path d="m243.980469 369.734375c-3.179688.332031-6.386719.558594-9.628907.675781l.359376 9.992188c3.46875-.121094 6.90625-.367188 10.3125-.722656zm20.867187-3.8125c-3.09375.8125-6.234375 1.523437-9.410156 2.128906l1.863281 9.824219c3.40625-.648438 6.769531-1.410156 10.089844-2.28125zm20.039063-6.949219c-2.941407 1.28125-5.933594 2.460938-8.976563 3.539063l3.34375 9.425781c3.261719-1.15625 6.46875-2.425781 9.625-3.796875zm18.746093-9.925781c-.316406.199219-.636718.398437-.953124.597656-2.414063 1.496094-4.875 2.917969-7.378907 4.269531l4.738281 8.804688c2.6875-1.445312 5.324219-2.972656 7.910157-4.578125.339843-.210937.683593-.425781 1.023437-.636719zm17.03125-12.65625c-2.429687 2.105469-4.929687 4.132813-7.503906 6.074219l6.023438 7.984375c2.753906-2.078125 5.433594-4.246094 8.035156-6.503907zm14.929688-15.085937c-2.085938 2.457031-4.253906 4.835937-6.5 7.136718l7.152344 6.988282c2.410156-2.46875 4.734375-5.019532 6.96875-7.644532zm12.480469-17.160157c-1.691407 2.742188-3.476563 5.421875-5.347657 8.035157l8.128907 5.824218c2.003906-2.800781 3.917969-5.667968 5.730469-8.609375zm9.734375-18.851562c-1.257813 2.972656-2.613282 5.890625-4.066406 8.75l8.917968 4.527343c1.558594-3.066406 3.011719-6.199218 4.359375-9.382812zm0 0" fill="#122436"/></svg>